<svg width="59" height="60" fill="none" xmlns="http://www.w3.org/2000/svg"><path fill="#5634D1" d="M0 0h59v60H0z"/><path fill-rule="evenodd" clip-rule="evenodd" d="M29.5 49C40.27 49 49 40.27 49 29.5S40.27 10 29.5 10 10 18.73 10 29.5 18.73 49 29.5 49zm18-19.5c0 9.941-8.059 18-18 18s-18-8.059-18-18 8.059-18 18-18 18 8.059 18 18zm-10.777-2.258a4.335 4.335 0 00-.009-.222 7.035 7.035 0 001.728-1.795 6.878 6.878 0 01-1.988.545 3.478 3.478 0 001.522-1.916 6.94 6.94 0 01-2.199.84 3.463 3.463 0 00-4.898-.15 3.47 3.47 0 00-1.001 3.312 9.822 9.822 0 01-7.134-3.62 3.472 3.472 0 001.07 4.627 3.436 3.436 0 01-1.57-.434v.044c0 1.65 1.162 3.07 2.777 3.397a3.44 3.44 0 01-1.563.06 3.467 3.467 0 003.234 2.406 6.947 6.947 0 01-5.123 1.437 9.792 9.792 0 005.306 1.553v.003c6.367 0 9.85-5.281 9.85-9.861 0-.076 0-.15-.002-.226z" fill="#fff"/></svg>