<svg width="59" height="60" viewBox="0 0 59 60" fill="none" xmlns="http://www.w3.org/2000/svg">
<rect width="59" height="60" fill="#5634D1"/>
<path fill-rule="evenodd" clip-rule="evenodd" d="M29.5 49C40.2696 49 49 40.2695 49 29.5C49 18.7305 40.2696 10 29.5 10C18.7304 10 10 18.7305 10 29.5C10 40.2695 18.7304 49 29.5 49ZM47.5 29.5C47.5 39.4412 39.4411 47.5 29.5 47.5C19.5589 47.5 11.5 39.4412 11.5 29.5C11.5 19.5588 19.5589 11.5 29.5 11.5C39.4411 11.5 47.5 19.5588 47.5 29.5ZM36.7233 27.2419C36.722 27.168 36.7194 27.094 36.7143 27.02C37.3916 26.5293 37.977 25.9219 38.4417 25.2246C37.8104 25.5054 37.14 25.6892 36.4538 25.7703C37.1763 25.3372 37.7172 24.6558 37.9756 23.8535C37.2956 24.2571 36.5526 24.5417 35.7773 24.6948C34.4666 23.2996 32.2737 23.2324 30.8795 24.5447C29.9801 25.3906 29.599 26.6521 29.878 27.856C27.0942 27.7166 24.501 26.4001 22.7435 24.2351C21.8249 25.8191 22.2938 27.845 23.8149 28.8625C23.2638 28.8462 22.725 28.6973 22.2437 28.429V28.4729C22.2437 30.1226 23.4056 31.5432 25.0207 31.8699C24.5113 32.0093 23.9767 32.0298 23.4577 31.9294C23.9115 33.3413 25.2105 34.3081 26.6919 34.3364C25.4655 35.3005 23.9513 35.8242 22.3925 35.8228C22.1169 35.822 21.8421 35.8057 21.5685 35.7727C23.152 36.7898 24.9939 37.3291 26.8749 37.3264V37.3291C33.2423 37.3291 36.7246 32.0476 36.7246 27.468C36.7246 27.3923 36.7246 27.3171 36.7233 27.2419Z" fill="white"/>
</svg>
